<svg xmlns="http://www.w3.org/2000/svg" viewBox="0 0 48 48" width="48" height="48">
  <defs>
    <linearGradient id="aries-grad" x1="0%" y1="0%" x2="100%" y2="100%">
      <stop offset="0%" style="stop-color:#00bcd4;stop-opacity:1" />
      <stop offset="50%" style="stop-color:#2196f3;stop-opacity:1" />
      <stop offset="100%" style="stop-color:#1565c0;stop-opacity:1" />
    </linearGradient>
  </defs>
  <!-- Ram horns — left -->
  <path d="M12 18 C6 14, 3 20, 5 28 C7 34, 12 34, 14 30" fill="none" stroke="url(#aries-grad)" stroke-width="3" stroke-linecap="round"/>
  <!-- Ram horns — right -->
  <path d="M36 18 C42 14, 45 20, 43 28 C41 34, 36 34, 34 30" fill="none" stroke="url(#aries-grad)" stroke-width="3" stroke-linecap="round"/>
  <!-- Head shape -->
  <path d="M14 22 C14 14, 24 10, 24 10 C24 10, 34 14, 34 22 L34 32 C34 36, 30 40, 24 40 C18 40, 14 36, 14 32 Z" fill="url(#aries-grad)" opacity="0.9"/>
  <!-- Face line — nose bridge -->
  <line x1="24" y1="18" x2="24" y2="34" stroke="#0a0e17" stroke-width="1.5" stroke-linecap="round" opacity="0.5"/>
  <!-- Eyes -->
  <circle cx="19" cy="24" r="2" fill="#0a0e17" opacity="0.7"/>
  <circle cx="29" cy="24" r="2" fill="#0a0e17" opacity="0.7"/>
  <!-- Eye glints -->
  <circle cx="19.5" cy="23.5" r="0.7" fill="#ffffff" opacity="0.8"/>
  <circle cx="29.5" cy="23.5" r="0.7" fill="#ffffff" opacity="0.8"/>
</svg>
